<svg width="57" height="57" viewBox="0 0 57 57" fill="none" xmlns="http://www.w3.org/2000/svg">
<path d="M27.1169 26.6965C26.6082 20.2684 25.8497 13.7348 25.7496 12.912L26.6615 0.138648L24.8295 0.00457764L24.4245 5.66766C24.1362 5.77602 22.1288 6.49596 19.317 6.49596C17.0516 6.49596 15.2765 6.01569 14.5318 5.77602L14.3766 0.0413092L12.5409 0.091815L12.8853 12.8156C12.4886 14.3262 9.21582 27.0987 9.21582 36.7976C9.21582 43.6885 10.4978 50.1945 11.2627 53.46C11.7512 55.5445 13.5896 57 15.7338 57H21.0177C23.1848 57 25.0278 55.5215 25.5007 53.4049C26.2776 49.9209 27.3538 43.1311 27.3538 36.7976C27.3538 33.7945 27.5815 30.1891 26.6638 26.6965H27.1169ZM19.317 8.3307C21.5154 8.3307 23.2849 7.93124 24.2831 7.64015L24.0232 11.2757C23.1095 11.508 21.0122 11.9442 18.0626 11.9965L14.6356 9.62365L14.5841 7.70626C15.6135 7.98726 17.2811 8.3307 19.317 8.3307ZM24.295 16.3106L20.5291 13.7036C22.0002 13.5695 23.1518 13.3611 23.9341 13.1857C23.981 13.5686 24.1169 14.6963 24.295 16.3106ZM14.6943 13.1591L14.7283 13.0296L14.698 11.901L17.4804 13.8276V13.8404C17.4868 13.8404 17.4924 13.8404 17.4988 13.8404L24.5522 18.7239C24.6945 20.0995 24.846 21.6477 24.9929 23.2859L13.9542 16.1894C14.3812 14.3455 14.6833 13.1985 14.6943 13.1591ZM13.5272 18.0967L17.9221 20.9223L12.6374 22.5082C12.9367 20.8975 13.2434 19.3988 13.5272 18.0967ZM11.8908 26.9628C12.012 26.1391 12.1424 25.3273 12.2774 24.5321L19.9552 22.229L25.1894 25.5945C25.2216 25.9866 25.2519 26.3815 25.2822 26.7782C25.2969 27.5762 25.3768 37.1135 21.7229 40.8693C20.7817 41.8363 19.6935 42.3074 18.3987 42.3074C17.1002 42.3074 16.024 41.8381 15.1066 40.8721C11.6208 37.2054 11.8522 28.0179 11.8908 26.9628ZM23.7082 53.0045C23.4245 54.2754 22.318 55.1634 21.0177 55.1634H15.7338C14.4473 55.1634 13.3435 54.291 13.0515 53.0412C12.3049 49.8539 11.0524 43.5039 11.0524 36.7976C11.0524 36.7811 11.0533 36.7646 11.0533 36.7481C11.6116 38.805 12.4666 40.7601 13.7742 42.1366C15.0387 43.469 16.5952 44.1439 18.3987 44.1439C20.1912 44.1439 21.7532 43.4727 23.0416 42.1476C24.2757 40.8785 25.1371 39.1145 25.7395 37.2292C25.6826 43.2633 24.4511 49.6748 23.7082 53.0045Z" fill="white"/>
<path d="M44.1138 12.8156L44.4581 0.0918288L42.6234 0.041323L42.4682 5.77603C41.728 6.01479 39.964 6.49414 37.683 6.49414C34.8978 6.49414 32.8711 5.77512 32.5755 5.664L32.1714 0L30.3394 0.131315L31.2513 12.9111C31.1503 13.7348 30.3918 20.2685 29.883 26.6965H30.3362C29.4185 30.1891 29.6461 33.7945 29.6461 36.7977C29.6461 43.1311 30.8362 49.9209 31.6131 53.4049C32.086 55.5216 33.8151 57 35.9823 57H41.2661C43.4103 57 45.2488 55.5445 45.7373 53.46C46.5022 50.1946 47.7842 43.6885 47.7842 36.7977C47.7842 27.0987 44.5114 14.3262 44.1138 12.8156ZM44.3635 22.5072L39.0788 20.9214L43.4737 18.0958C43.7575 19.3979 44.0642 20.8966 44.3635 22.5072ZM37.683 8.33071C39.7188 8.33071 41.3864 7.98727 42.4158 7.70628L42.3635 9.62458L38.9364 11.9974C35.9878 11.9451 33.8904 11.5089 32.9758 11.2766L32.716 7.64108C33.7151 7.93126 35.4846 8.33071 37.683 8.33071ZM33.0658 13.1857C33.8482 13.3611 34.9997 13.5695 36.4708 13.7036L32.7049 16.3106C32.8831 14.6963 33.019 13.5686 33.0658 13.1857ZM32.4478 18.7239L39.5012 13.8404C39.5076 13.8404 39.5131 13.8404 39.5196 13.8404V13.8276L42.302 11.901L42.2717 13.0305L42.3056 13.1591C42.3157 13.1976 42.6188 14.3455 43.0458 16.1894L32.007 23.286C32.154 21.6477 32.3055 20.1004 32.4478 18.7239ZM31.7169 26.78C31.7472 26.3833 31.7784 25.9885 31.8096 25.5955L37.0439 22.2308L44.7226 24.5348C44.8567 25.3292 44.9871 26.14 45.1083 26.9619C45.1468 27.9977 45.3828 37.2017 41.8933 40.873C40.976 41.8381 39.8997 42.3074 38.6013 42.3074C37.3065 42.3074 36.2183 41.8363 35.2771 40.8693C31.625 37.1154 31.7031 27.5826 31.7169 26.78ZM43.9494 53.0403C43.6565 54.291 42.5536 55.1634 41.2661 55.1634H35.9823C34.682 55.1634 33.5755 54.2754 33.2917 53.0045C32.5488 49.6739 31.3174 43.2624 31.2605 37.2283C31.8629 39.1136 32.7251 40.8785 33.9584 42.1467C35.2468 43.4727 36.8088 44.144 38.6013 44.144C40.4048 44.144 41.9613 43.469 43.2267 42.1366C44.5343 40.7601 45.0293 38.805 45.9476 36.7481C45.9476 36.7646 45.9476 36.7811 45.9476 36.7977C45.9476 43.5039 44.695 49.8539 43.9494 53.0403Z" fill="white"/>
</svg>
