<svg width="56" height="56" viewBox="0 0 56 56" fill="none" xmlns="http://www.w3.org/2000/svg">
<path d="M47.127 14.4344C48.0235 10.9492 47.273 7.31916 45.0681 4.47508C42.863 1.63111 39.5345 0 35.9358 0H20.0647C16.466 0 13.1373 1.63111 10.9324 4.47519C8.72739 7.31927 7.97686 10.9492 8.87341 14.4344L11.987 26.5384C12.0092 26.6249 12.0447 26.7046 12.0901 26.7761C10.17 29.7384 9.05344 33.2677 9.05344 37.0532C9.05322 47.5005 17.5529 56 28.0001 56C38.4474 56 46.9471 47.5005 46.9471 37.0531C46.9471 33.2672 45.8302 29.7375 43.9097 26.775C43.955 26.7035 43.9913 26.6247 44.0135 26.5383L47.127 14.4344ZM45.287 37.0531C45.287 46.5851 37.5322 54.3399 28.0001 54.3399C18.4681 54.3399 10.7133 46.5852 10.7133 37.0531C10.7133 27.5209 18.4681 19.7663 28.0001 19.7663C37.5322 19.7663 45.287 27.521 45.287 37.0531ZM16.0165 16.4701C15.5002 14.4629 15.9324 12.3721 17.2024 10.7341C18.4725 9.09617 20.3894 8.15675 22.462 8.15675H33.5384C35.611 8.15675 37.528 9.09606 38.798 10.7341C40.0679 12.3721 40.5003 14.4627 39.9839 16.47L38.7078 21.4307C35.6596 19.3349 31.9709 18.1062 28.0002 18.1062C24.0296 18.1062 20.3409 19.3349 17.2927 21.4307L16.0165 16.4701ZM42.6741 25.0813C41.9126 24.1498 41.0643 23.2918 40.1416 22.5198L41.5915 16.8836C42.2366 14.3756 41.6965 11.7634 40.1098 9.71698C38.5231 7.67047 36.128 6.49677 33.5383 6.49677H22.4619C19.8724 6.49677 17.4772 7.67047 15.8904 9.71698C14.3035 11.7635 13.7636 14.3757 14.4087 16.8836L15.8585 22.5198C14.9358 23.2917 14.0876 24.1497 13.3262 25.0813L10.481 14.0207C9.71319 11.0362 10.356 7.92761 12.2441 5.49216C14.1325 3.05681 16.9829 1.65998 20.0645 1.65998H35.9357C39.0175 1.65998 41.8679 3.05681 43.756 5.49216C45.6444 7.92761 46.2869 11.0362 45.5192 14.0207L42.6741 25.0813Z" fill="white"/>
<path d="M30.028 24.445H25.8174C21.3997 24.445 17.8057 28.0391 17.8057 32.4568V40.9391C17.8057 43.0012 19.4834 44.6789 21.5455 44.6789H34.2996C36.3618 44.6789 38.0395 43.0012 38.0395 40.9391V32.4567C38.0396 28.0391 34.4455 24.445 30.028 24.445ZM36.3797 40.939C36.3796 42.0858 35.4465 43.0189 34.2997 43.0189H21.5456C20.3987 43.0189 19.4658 42.0858 19.4658 40.939V32.4566C19.4658 28.9543 22.3151 26.1049 25.8174 26.1049H30.028C33.5303 26.1049 36.3797 28.9542 36.3797 32.4566V40.939Z" fill="white"/>
<path d="M30.4275 37.8856H29.2275V30.6918C29.2275 30.356 29.0252 30.0535 28.715 29.925C28.4048 29.7965 28.048 29.8676 27.8104 30.1049L24.8803 33.0349C24.5562 33.3591 24.5562 33.8847 24.8803 34.2086C25.2046 34.5328 25.7301 34.5328 26.0542 34.2086L27.5673 32.6955V37.8856H26.3673C25.9088 37.8856 25.5373 38.2573 25.5373 38.7157C25.5373 39.174 25.9088 39.5457 26.3673 39.5457H30.4274C30.8859 39.5457 31.2575 39.174 31.2575 38.7157C31.2575 38.2574 30.8859 37.8856 30.4275 37.8856Z" fill="white"/>
</svg>
