<svg width="80" height="100" viewBox="0 0 53 53" fill="none" xmlns="http://www.w3.org/2000/svg">
<path d="M53 20.1148C53 12.502 52.2382 5.66097 43.0353 5.56987L41.9248 5.55828C35.0292 5.47712 32.1796 5.44814 29.5255 9.61023C27.9662 12.0573 26.6371 15.812 28.0242 18.3402C28.9715 20.0676 30.9424 20.9429 33.8822 20.9429H42.9741C43.4494 21.0001 46.2203 21.2535 47.5428 19.5269C48.4595 18.3311 48.4264 16.5722 47.4459 14.299C47.2645 13.8792 46.7751 13.6862 46.3577 13.8676C45.9379 14.0489 45.7449 14.5358 45.9263 14.9557C46.4248 16.1093 46.8811 17.6636 46.231 18.5166C45.5445 19.4159 43.7699 19.3836 43.148 19.295C43.1082 19.2892 43.0676 19.2867 43.0279 19.2867H33.8822C31.5925 19.2867 30.1102 18.7004 29.4758 17.5435C28.5045 15.7714 29.5023 12.7297 30.9225 10.5005C33.0823 7.11513 35.1335 7.13997 41.9066 7.21368L43.0196 7.2261C48.5398 7.28075 51.343 9.28893 51.343 20.1148C51.343 27.273 47.9535 35.526 47.0608 37.5756H34.2946C32.2152 34.7666 28.1376 27.9438 30.8099 25.2723C31.807 24.2736 32.7982 23.8695 33.6106 24.1386C34.3095 24.3705 34.7029 25.028 34.7832 25.5779C34.8254 25.8661 34.8221 26.4019 34.3219 26.7513C32.9258 27.7285 32.9696 28.8423 33.0533 29.2754C33.2048 30.0605 33.8251 30.6898 34.6333 30.8795C35.5873 31.1055 36.5819 30.6849 37.2841 29.7599C37.5607 29.3963 37.4903 28.8763 37.1268 28.5997C36.7607 28.3239 36.2423 28.3943 35.9666 28.7578C35.666 29.1537 35.3173 29.3367 35.0109 29.2671C34.8379 29.2265 34.7087 29.1073 34.6797 28.9624C34.6333 28.7231 34.861 28.396 35.2718 28.1086C36.1554 27.49 36.586 26.4549 36.4229 25.3386C36.2341 24.0542 35.3356 22.966 34.1315 22.5669C33.3009 22.2911 31.6165 22.1255 29.639 24.1014C25.5763 28.1641 31.8881 37.1069 33.0541 38.6803V46.6343C33.0541 47.0914 33.4243 47.4624 33.8822 47.4624H47.5991C48.057 47.4624 48.4272 47.0914 48.4272 46.6343V38.585C49.0516 37.2079 53 28.1831 53 20.1148ZM46.771 39.2318V41.6905H34.7965C34.7658 41.6905 34.7401 41.7045 34.7103 41.7079V39.2318H46.771ZM34.7103 45.8062V43.3301C34.7401 43.3334 34.7658 43.3475 34.7965 43.3475H46.771V45.8062H34.7103Z" fill="white"/>
<path d="M11.0752 5.55745L9.96467 5.56905C0.761863 5.66097 0 12.502 0 20.1148C0 28.1831 3.94761 37.2079 4.57283 38.585V46.6343C4.57283 47.0914 4.94383 47.4624 5.40095 47.4624H19.1186C19.5766 47.4624 19.9467 47.0914 19.9467 46.6343V38.6803C21.1127 37.1069 27.4238 28.1641 23.3619 24.1014C21.386 22.1263 19.7 22.2911 18.8685 22.5669C17.6653 22.966 16.766 24.0533 16.578 25.3386C16.4148 26.4549 16.8446 27.4908 17.7291 28.1086C18.1398 28.396 18.3659 28.7239 18.3203 28.9624C18.2922 29.1065 18.1622 29.2265 17.9899 29.2671C17.6843 29.3375 17.334 29.1528 17.0343 28.7578C16.7577 28.3943 16.2376 28.3231 15.8741 28.6005C15.5105 28.8771 15.4402 29.3963 15.7159 29.7607C16.4198 30.6865 17.4086 31.1064 18.3675 30.8803C19.1758 30.6915 19.796 30.0621 19.9467 29.2771C20.0304 28.844 20.0743 27.7293 18.6789 26.7522C18.1787 26.4027 18.1754 25.8669 18.2176 25.5779C18.298 25.0288 18.6913 24.3705 19.3902 24.1395C20.1927 23.8703 21.1914 24.2736 22.1909 25.2731C24.8583 27.9413 20.784 34.7658 18.7062 37.5764H5.93756C5.04486 35.5277 1.65622 27.2805 1.65622 20.1148C1.65622 11.6217 2.94394 7.29566 9.98124 7.22527L11.0942 7.21285C17.8756 7.13832 19.9186 7.11347 22.0775 10.4996C23.4985 12.7281 24.4964 15.7706 23.525 17.5427C22.8898 18.6988 21.4075 19.2859 19.1186 19.2859H9.97295C9.93403 19.2859 9.89345 19.2884 9.85536 19.2942C9.22931 19.3811 7.45549 19.4142 6.77064 18.5157C6.11975 17.6628 6.57769 16.1084 7.07539 14.9549C7.25675 14.535 7.06297 14.0473 6.64394 13.8667C6.22161 13.6845 5.73633 13.8783 5.5558 14.2982C4.57449 16.5705 4.54219 18.3294 5.45891 19.526C6.78141 21.2518 9.55227 20.9993 10.0268 20.9421H19.1186C22.0584 20.9421 24.0302 20.066 24.9767 18.3394C26.3638 15.812 25.0338 12.0573 23.4745 9.6094C20.8204 5.44731 17.9667 5.47464 11.0752 5.55745ZM6.22906 45.8062V43.3475H18.2036C18.2342 43.3475 18.2607 43.3334 18.2897 43.3301V45.8062H6.22906ZM18.2897 39.2318V41.7079C18.2599 41.7045 18.2342 41.6905 18.2036 41.6905H6.22906V39.2318H18.2897Z" fill="white"/>
</svg>
