<svg width="40" height="40" viewBox="0 0 40 40" fill="none" xmlns="http://www.w3.org/2000/svg">
<g clip-path="url(#clip0_159_1510)">
<path d="M13.1914 6.17622V29.8828C12.9139 29.6356 12.6062 29.4086 12.2631 29.2088C10.535 28.2023 8.24896 27.9723 5.99357 28.5746C2.02998 29.6331 -0.545648 32.9812 0.25179 36.0379C0.576633 37.283 1.39856 38.319 2.62842 39.0356C3.72387 39.6736 5.04272 40.0001 6.43658 40.0001C7.24178 40.0001 8.07179 39.8905 8.89752 39.6697C12.3521 38.7478 14.7503 36.0855 14.7823 33.3932H14.7832V33.3801C14.7833 33.3667 14.7832 33.3534 14.7832 33.34V15.1204L38.3014 9.68079V24.0746C38.024 23.8277 37.7164 23.6007 37.3735 23.401C35.645 22.3945 33.3601 22.1637 31.104 22.7668C27.1404 23.8246 24.5648 27.1734 25.3622 30.2317C25.687 31.4752 26.5086 32.5119 27.7388 33.2277C28.8339 33.8657 30.1535 34.1922 31.547 34.1922C32.3522 34.1922 33.1822 34.0826 34.0083 33.8618C37.4629 32.9394 39.8611 30.2775 39.8928 27.5853H39.8932V27.5801C39.8934 27.561 39.8932 27.5421 39.8932 27.5232V0L13.1914 6.17622ZM8.48683 38.1324C6.66475 38.6204 4.77349 38.4433 3.42934 37.6599C2.57362 37.1618 2.00751 36.4623 1.79219 35.6361C1.21476 33.4235 3.28361 30.9459 6.40433 30.112C7.084 29.9301 7.77338 29.8415 8.4402 29.8415C9.56127 29.8415 10.6195 30.0933 11.4622 30.5845C12.3179 31.0826 12.8841 31.7821 13.0994 32.6075C13.1648 32.8582 13.1917 33.1125 13.1914 33.3673V33.3932H13.1926C13.1741 35.379 11.2417 37.3968 8.48683 38.1324ZM14.7832 13.4862V7.44148L38.3014 2.002V8.04655L14.7832 13.4862ZM33.598 32.3245C31.7747 32.8125 29.8846 32.6346 28.5393 31.852C27.6835 31.3539 27.1177 30.6544 26.9025 29.8298C26.3251 27.6164 28.3939 25.1371 31.5143 24.3041C32.1944 24.1222 32.8837 24.0336 33.5505 24.0336C34.672 24.0336 35.7298 24.2854 36.5722 24.7766C37.4287 25.2747 37.9945 25.9742 38.2098 26.7996V26.8004C38.2741 27.0469 38.3006 27.297 38.3015 27.5476V27.5854H38.3031C38.2852 29.5706 36.353 31.5883 33.598 32.3245Z" fill="white"/>
</g>
<defs>
<clipPath id="clip0_159_1510">
<rect width="40" height="40" fill="white"/>
</clipPath>
</defs>
</svg>
