<svg width="80" height="100" viewBox="0 0 48 48" fill="none" xmlns="http://www.w3.org/2000/svg">
<path d="M41.9408 17.8851C41.8836 16.275 40.5551 15.0139 38.9164 15.0139H33.614L30.1983 10.1347C30.0908 9.97518 29.769 9.54581 29.5748 9.35512C29.0546 8.82937 28.4342 8.44115 27.7565 8.20603C28.5087 7.33556 28.9653 6.20278 28.9653 4.96481C28.9653 2.22731 26.7381 9.15527e-05 24.0005 9.15527e-05C21.263 9.15527e-05 19.0358 2.22722 19.0358 4.96481C19.0358 6.20287 19.4924 7.33565 20.2446 8.20612C19.5667 8.44125 18.9461 8.82965 18.4258 9.35559C18.2315 9.54637 17.9103 9.97509 17.8025 10.1352L14.387 15.014H9.08454C7.47129 15.014 6.15973 16.2364 6.06457 17.8101C6.06064 17.8463 6.05811 17.883 6.05811 17.9204V30.228C6.0582 40.0274 14.0307 48 23.8303 48H24.1693C33.9689 48 41.9414 40.0274 41.9414 30.2279V18.0636C41.9423 18.0237 41.9411 17.8947 41.9408 17.8851ZM24.0005 1.986C25.643 1.986 26.9793 3.32231 26.9793 4.96481C26.9793 6.60731 25.643 7.94362 24.0005 7.94362C22.358 7.94362 21.0216 6.60731 21.0216 4.96481C21.0216 3.32231 22.3579 1.986 24.0005 1.986ZM9.08454 16.9997H14.904C15.228 16.9997 15.5316 16.8416 15.7174 16.5762L19.4349 11.2658C19.444 11.2527 19.4484 11.2464 19.4569 11.2329C19.5102 11.1532 19.7358 10.8601 19.8134 10.776C19.8199 10.7697 19.8262 10.7635 19.8325 10.7571C20.358 10.2234 21.0593 9.92953 21.8072 9.92953H26.1935C26.9413 9.92953 27.6425 10.2233 28.1679 10.757C28.1743 10.7633 28.1808 10.7698 28.1872 10.7759C28.2647 10.8598 28.4901 11.1526 28.5389 11.2254C28.5473 11.2388 28.556 11.2521 28.5652 11.265L32.2833 16.5761C32.4691 16.8415 32.7726 16.9996 33.0966 16.9996H38.9161C39.4683 16.9996 39.9326 17.4246 39.9553 17.9484V18.001C39.953 18.2569 39.8564 18.4974 39.6783 18.682C39.4895 18.8778 39.2356 18.9856 38.9636 18.9856H32.0627C31.739 18.9856 31.4349 18.8273 31.2493 18.562L30.7713 17.8792C30.5227 17.5242 30.0726 17.3715 29.6593 17.5016C29.246 17.632 28.9649 18.0153 28.9649 18.4486V38.6255C28.9649 39.162 28.5284 39.5986 27.9918 39.5986H27.952C27.4154 39.5986 26.9789 39.1621 26.9789 38.6255V27.4793C26.9789 25.8477 25.6515 24.5204 24.02 24.5204H23.9802C22.3486 24.5204 21.0213 25.8478 21.0213 27.4793V38.6256C21.0213 39.162 20.5848 39.5987 20.0481 39.5987H20.0084C19.4718 39.5987 19.0353 39.1622 19.0353 38.6256V22.6369H21.99C22.5384 22.6369 22.9829 22.1922 22.9829 21.644C22.9829 21.0957 22.5383 20.6511 21.99 20.6511H19.0353V18.4488C19.0353 18.0155 18.7542 17.6321 18.3409 17.5018C17.9276 17.3718 17.4775 17.5243 17.2289 17.8793L16.7508 18.5623C16.5651 18.8274 16.261 18.9858 15.9374 18.9858H9.03645C8.76457 18.9858 8.51079 18.878 8.32179 18.6822C8.13307 18.4867 8.03445 18.2286 8.0442 17.9557C8.06342 17.4285 8.52992 16.9997 9.08454 16.9997ZM39.9556 30.2279C39.9556 38.9326 32.8739 46.0143 24.1693 46.0143H23.8303C15.1257 46.0143 8.04401 38.9326 8.04401 30.228V20.8026C8.35836 20.9133 8.69267 20.9715 9.03692 20.9715H15.9379C16.324 20.9715 16.7009 20.8963 17.0498 20.7559V38.6256C17.0498 40.2573 18.3772 41.5846 20.0088 41.5846H20.0485C21.6801 41.5846 23.0075 40.2572 23.0075 38.6256V27.4793C23.0075 26.9429 23.444 26.5062 23.9806 26.5062H24.0203C24.557 26.5062 24.9935 26.9427 24.9935 27.4793V38.6256C24.9935 40.2572 26.3209 41.5845 27.9524 41.5845H27.9921C29.6238 41.5845 30.9511 40.2571 30.9511 38.6256V20.7559C31.3 20.8964 31.6768 20.9714 32.063 20.9714H38.9639C39.3077 20.9714 39.6416 20.9133 39.9556 20.8029V30.2279Z" fill="white"/>
<path d="M25.78 22.6369H25.8793C26.4277 22.6369 26.8722 22.1922 26.8722 21.644C26.8722 21.0957 26.4276 20.6511 25.8793 20.6511H25.78C25.2316 20.6511 24.7871 21.0957 24.7871 21.644C24.7871 22.1922 25.2316 22.6369 25.78 22.6369Z" fill="white"/>
</svg>
