<svg width="54" height="54" viewBox="0 0 54 54" fill="none" xmlns="http://www.w3.org/2000/svg">
<g clip-path="url(#clip0_159_1498)">
<path d="M53.0921 11.7284L52.999 11.6353C51.7884 10.4247 49.6467 10.4247 48.4361 11.6353L43.594 16.5706C43.3147 16.8499 42.9422 16.8499 42.6628 16.5706L35.865 10.2385C35.2132 9.67979 34.3751 9.30731 33.4438 9.30731H23.2938C23.0145 9.30731 22.8282 9.40046 22.7351 9.4936L14.1681 17.6881C12.9575 18.9918 12.8644 21.0404 13.9818 22.2509C14.5405 22.9028 15.3785 23.2752 16.3098 23.2752C17.241 23.2752 18.079 22.9028 18.6377 22.2509L24.6905 15.8258H26.8322L12.6783 31.6559H3.92509C1.7834 31.6559 0.107214 33.239 0.0140695 35.1945C-0.0790752 36.2188 0.293398 37.2431 1.03835 37.9881C1.78329 38.6399 2.71453 39.1055 3.7388 39.1055H16.7756C17.0549 39.1055 17.2412 39.0124 17.4274 38.8262L24.132 31.656L29.7191 37.5226L28.0429 48.3244C27.5773 50.1868 28.5086 51.9561 30.0916 52.7011C30.6504 52.9804 31.1159 53.0735 31.6746 53.0735C32.2334 53.0735 32.792 52.9804 33.3508 52.7011C34.282 52.2354 35.027 51.3043 35.3063 50.1868L38.193 34.6358C38.193 34.3565 38.0998 33.984 37.9136 33.7977L30.1847 26.0688L36.3306 19.923L40.6141 24.2065C41.8247 25.417 43.8733 25.417 45.0838 24.2065L53.092 16.1982C54.3027 14.9876 54.3027 12.939 53.0921 11.7284ZM51.7884 14.8945L43.7802 22.9028C43.2214 23.3684 42.3834 23.3684 41.9178 22.9028L36.9825 17.9675C36.61 17.595 36.0513 17.595 35.6788 17.9675L28.2292 25.417C28.0429 25.6033 27.9499 25.7895 27.9499 26.0688C27.9499 26.3482 28.043 26.5344 28.3224 26.8138L36.3306 34.822L33.537 49.8142C33.3507 50.2798 32.9782 50.7454 32.5127 51.0248C32.0471 51.2111 31.4884 51.3041 30.9297 51.0248C30.0916 50.6523 29.7191 49.7211 29.9054 48.6968L31.6746 37.3362C31.6746 37.0568 31.5815 36.7774 31.3953 36.5912L24.7838 29.7004C24.5975 29.5141 24.4113 29.4211 24.132 29.4211C23.8527 29.4211 23.5733 29.5142 23.4802 29.7004L16.4031 37.243H3.73891C3.18015 37.243 2.71463 37.0567 2.34216 36.6843C2.06283 36.3118 1.87654 35.8462 1.87654 35.2875C1.87654 34.2632 2.80778 33.5183 3.9252 33.5183H13.0508C13.3302 33.5183 13.5165 33.4252 13.7027 33.4252L29.5329 15.7325C29.8123 15.4532 29.8123 15.0807 29.7192 14.7082C29.6261 14.3358 29.2536 14.1495 28.8811 14.1495H24.2252C24.0389 14.1495 23.7595 14.2426 23.5734 14.4288L17.2412 21.1334C17.0549 21.4128 16.6824 21.599 16.31 21.599C15.9375 21.599 15.565 21.4128 15.2857 21.1334C14.8201 20.5747 14.8201 19.7367 15.3788 19.1779L23.6665 11.2628H33.5371C33.9096 11.2628 34.3752 11.4491 34.6545 11.7284L41.4522 18.0606C42.4765 18.9918 44.0595 18.8987 44.9907 17.9675L49.833 13.0322C50.2986 12.5665 51.2297 12.5665 51.6954 13.0322L51.7885 13.1253C52.254 13.5908 52.254 14.4289 51.7884 14.8945Z" fill="white"/>
<path d="M42.8489 12.1009C45.9219 12.1009 48.4361 9.58672 48.4361 6.51368C48.4361 3.44064 45.9219 0.926575 42.8489 0.926575C39.776 0.926575 37.2617 3.44074 37.2617 6.51378C37.2617 9.58682 39.776 12.1009 42.8489 12.1009ZM42.8489 2.78894C44.8976 2.78894 46.5737 4.46513 46.5737 6.51368C46.5737 8.56234 44.8975 10.2384 42.8489 10.2384C40.8004 10.2384 39.1242 8.56223 39.1242 6.51368C39.1242 4.46513 40.8004 2.78894 42.8489 2.78894Z" fill="white"/>
</g>
<defs>
<clipPath id="clip0_159_1498">
<rect width="54" height="54" fill="white"/>
</clipPath>
</defs>
</svg>
