<svg width="63" height="63" viewBox="0 0 63 63" fill="none" xmlns="http://www.w3.org/2000/svg">
<path d="M51.4286 26.7096C51.0379 26.7096 50.6519 26.7305 50.2712 26.7678L47.2518 14.193C47.1043 13.5792 46.5543 13.1467 45.9233 13.1467H41.2239C40.4699 13.1467 39.858 13.7586 39.858 14.5126C39.858 15.2665 40.4699 15.8784 41.2239 15.8784H44.847L45.8687 20.1344H25.5003L24.4705 16.4302H28.2639C29.0178 16.4302 29.6297 15.8183 29.6297 15.0644C29.6297 14.3104 29.0178 13.6985 28.2639 13.6985H22.673C22.246 13.6985 21.8444 13.8979 21.5858 14.2385C21.3281 14.5781 21.2434 15.0188 21.3572 15.4304L23.0054 21.36L17.481 28.3522C15.7482 27.3169 13.7313 26.7105 11.5714 26.7105C5.19021 26.7096 0 31.9016 0 38.2819C0 44.6622 5.19021 49.8524 11.5705 49.8524C17.5729 49.8524 22.5209 45.2568 23.0855 39.4001H29.057C29.0579 39.4001 29.0588 39.4001 29.0597 39.4001C29.1799 39.4001 29.3019 39.3846 29.423 39.3509C29.4567 39.3418 29.4867 39.3254 29.5186 39.3136C29.5423 39.3054 29.5641 39.2963 29.5878 39.2872C29.728 39.228 29.8537 39.1488 29.9621 39.0522C29.9693 39.0459 29.9794 39.0431 29.9866 39.0368L46.6873 23.5444L47.6069 27.3743C43.1024 28.9586 39.859 33.2438 39.859 38.2828C39.859 44.6631 45.0492 49.8533 51.4295 49.8533C57.8098 49.8533 63 44.6631 63 38.2828C63 31.9025 57.8089 26.7096 51.4286 26.7096ZM23.9114 24.6189L27.2604 36.6675H23.0163C22.6521 34.0769 21.4365 31.7586 19.649 30.0122L23.9114 24.6189ZM17.9435 32.1711C19.1127 33.3904 19.9359 34.9401 20.2564 36.6675H14.3914L17.9435 32.1711ZM11.5705 47.1207C6.69628 47.1207 2.73169 43.1552 2.73169 38.2819C2.73169 33.4086 6.69628 29.4422 11.5705 29.4422C13.0921 29.4422 14.5244 29.8291 15.7764 30.5084L10.4988 37.1874C10.1746 37.5981 10.1127 38.1581 10.3413 38.6297C10.5689 39.1005 11.046 39.4001 11.5705 39.4001H20.3319C19.7792 43.7462 16.0651 47.1207 11.5705 47.1207ZM29.7727 35.5065L26.2597 22.867H43.3992L29.7727 35.5065ZM51.4286 47.1207C46.5543 47.1207 42.5897 43.1561 42.5897 38.2819C42.5897 34.5304 44.9426 31.3252 48.2471 30.044L50.1001 37.7629C50.2512 38.3893 50.8103 38.8091 51.4277 38.8091C51.5324 38.8091 51.6398 38.7964 51.7482 38.7718C52.4812 38.596 52.9337 37.8576 52.7571 37.1237L50.9187 29.4677C51.088 29.4576 51.2565 29.4422 51.4286 29.4422C56.3028 29.4422 60.2674 33.4077 60.2674 38.2819C60.2674 43.1561 56.3028 47.1207 51.4286 47.1207Z" fill="white"/>
</svg>
