<svg width="80" height="100" viewBox="0 0 64 64" fill="none" xmlns="http://www.w3.org/2000/svg">
<g clip-path="url(#clip0_159_1486)">
<path d="M0.945995 27.3877H5.42899V22.6693C5.42899 21.2437 6.58873 20.0838 8.01448 20.0838H11.0532C11.2937 20.0838 11.5258 20.1193 11.7468 20.1811V19.2293C11.7468 17.8037 12.9066 16.6438 14.3323 16.6438H19.3521C20.7777 16.6438 21.9376 17.8036 21.9376 19.2293V27.3877H42.0627V19.2293C42.0627 17.8037 43.2224 16.6438 44.6482 16.6438H49.6679C51.0935 16.6438 52.2534 17.8036 52.2534 19.2293V20.1811C52.4745 20.1193 52.7065 20.0838 52.947 20.0838H55.9855C57.4111 20.0838 58.571 21.2436 58.571 22.6693V27.3877H63.0541C63.5766 27.3877 64 27.8112 64 28.3336V35.6664C64 36.1888 63.5766 36.6123 63.0541 36.6123H58.571V41.3307C58.571 42.7563 57.4113 43.9162 55.9855 43.9162H52.9469C52.7064 43.9162 52.4743 43.8805 52.2533 43.8189V44.7706C52.2533 46.1963 51.0935 47.3561 49.6678 47.3561H44.648C43.2224 47.3561 42.0625 46.1963 42.0625 44.7706V36.6123H21.9373V44.7706C21.9373 46.1963 20.7775 47.3561 19.3518 47.3561H14.3321C12.9065 47.3561 11.7466 46.1964 11.7466 44.7706V43.8189C11.5255 43.8807 11.2935 43.9162 11.053 43.9162H8.01423C6.58861 43.9162 5.42873 42.7564 5.42873 41.3307V36.6123H0.945747C0.423248 36.6123 -0.0001297 36.1888 -0.0001297 35.6664V28.3336C0.00012207 27.8112 0.423496 27.3877 0.945995 27.3877ZM58.571 34.7205H62.1081V29.2794H58.571V34.7205ZM52.2533 41.3308C52.2533 41.7132 52.5644 42.0244 52.9469 42.0244H55.9855C56.3679 42.0244 56.6791 41.7133 56.6791 41.3308V35.6664V28.3336V22.6692C56.6791 22.2867 56.3679 21.9756 55.9855 21.9756H52.9469C52.5644 21.9756 52.2533 22.2867 52.2533 22.6692V41.3308ZM43.9545 28.3337V35.6665V44.7706C43.9545 45.1531 44.2658 45.4643 44.6482 45.4643H49.6679C50.0503 45.4643 50.3615 45.1531 50.3615 44.7706V41.3307V22.6692V19.2293C50.3615 18.8468 50.0503 18.5357 49.6679 18.5357H44.6482C44.2658 18.5357 43.9545 18.8468 43.9545 19.2293V28.3337ZM21.9376 34.7205H42.0627V29.2794H21.9376V34.7205ZM13.6386 22.6691V41.3307V44.7708C13.6386 45.1533 13.9498 45.4644 14.3322 45.4644H19.352C19.7343 45.4644 20.0456 45.1533 20.0456 44.7708V35.6665V28.3337V19.2294C20.0456 18.8469 19.7343 18.5358 19.352 18.5358H14.3322C13.9498 18.5358 13.6386 18.8469 13.6386 19.2294V22.6691ZM7.32073 28.3336V35.6664V41.3308C7.32073 41.7133 7.63198 42.0244 8.01436 42.0244H11.0531C11.4355 42.0244 11.7467 41.7133 11.7467 41.3308V22.6692C11.7467 22.2867 11.4355 21.9756 11.0531 21.9756H8.01436C7.63198 21.9756 7.32073 22.2867 7.32073 22.6692V28.3336ZM1.89199 34.7205H5.42899V29.2794H1.89199V34.7205Z" fill="white"/>
</g>
<defs>
<clipPath id="clip0_159_1486">
<rect width="64" height="64" fill="white" transform="matrix(-1 0 0 1 64 0)"/>
</clipPath>
</defs>
</svg>
