<svg width="52" height="52" viewBox="0 0 52 52" fill="none" xmlns="http://www.w3.org/2000/svg">
<path d="M6.28875 49.3529C6.22375 49.3529 6.16038 49.3513 6.09538 49.348C6.045 49.3448 5.99463 49.3399 5.94263 49.335H1.625V48.165H3.79275C3.29225 47.5475 3.04525 46.774 3.09238 45.968C3.14275 45.1133 3.52138 44.33 4.15838 43.7645L18.915 29.0063V18.3138C18.915 15.8974 20.3596 13.793 22.555 12.8326C21.2144 11.7634 20.3743 10.0636 20.3743 8.27613C20.3743 5.18213 22.8897 2.66501 25.9837 2.66501C29.0777 2.66501 31.5949 5.18213 31.5949 8.27613C31.5949 9.84751 30.9465 11.349 29.8789 12.415H46.3125C47.9781 12.415 49.335 13.7703 49.335 15.4375C49.335 17.1048 47.9781 18.46 46.3125 18.46H31.46V28.665H38.0104C39.7735 28.665 41.21 30.1015 41.21 31.8663V46.3125C41.21 47.0096 40.9728 47.6531 40.573 48.165H50.375V49.3366H6.63162C6.51787 49.3464 6.4025 49.3529 6.28875 49.3529ZM38.1875 48.165C39.2096 48.165 40.04 47.3346 40.04 46.3125V31.8646C40.04 30.7466 39.13 29.835 38.012 29.835H30.875C30.5516 29.835 30.29 29.5734 30.29 29.25V17.875C30.29 17.5516 30.5516 17.29 30.875 17.29H46.3125C47.3346 17.29 48.165 16.458 48.165 15.4375C48.165 14.417 47.3346 13.585 46.3125 13.585H28.0215C27.7452 13.585 27.5064 13.3916 27.4495 13.1219C27.391 12.8521 27.5307 12.5791 27.7842 12.467C29.3637 11.7634 30.4233 10.0799 30.4233 8.27613C30.4233 5.82726 28.431 3.83501 25.9837 3.83501C23.5365 3.83501 21.5443 5.82726 21.5443 8.27613C21.5443 10.0783 22.6038 11.7634 24.1833 12.467C24.4156 12.5694 24.5538 12.8099 24.5261 13.0634C24.4985 13.3153 24.3132 13.5216 24.0646 13.5736C21.684 14.0774 20.085 15.9819 20.085 18.3154V29.25C20.085 29.406 20.0233 29.5555 19.9144 29.6644L4.96112 44.616C4.53375 44.9963 4.29325 45.4935 4.26075 46.0379C4.22825 46.5806 4.40863 47.1006 4.76775 47.5036C5.09275 47.8693 5.52988 48.1 6.01412 48.1634H6.56175C6.95825 48.1114 7.32875 47.9424 7.63263 47.6726L22.3486 33.6993C22.4575 33.5969 22.6021 33.5368 22.7516 33.5368H35.7516C36.075 33.5368 36.3366 33.7984 36.3366 34.1218V46.3093C36.335 47.3346 37.1654 48.165 38.1875 48.165ZM8.81075 48.165H35.8004C35.4022 47.6548 35.1634 47.0096 35.1634 46.3125V34.71H22.9824L8.81075 48.165ZM16.25 18.46H5.6875C4.02188 18.46 2.665 17.1048 2.665 15.4375C2.665 13.7703 4.02188 12.415 5.6875 12.415H17.875V13.585H5.6875C4.667 13.585 3.835 14.417 3.835 15.4375C3.835 16.458 4.667 17.29 5.6875 17.29H16.25V18.46Z" fill="black"/>
</svg>
